<?xml version="1.0" encoding="UTF-8" standalone="no"?>
<svg
   version="1.1"
   width="1499.5555"
   height="1522.4988"
   viewBox="0 0 1499.5555 1522.4988"
   id="svg11"
   sodipodi:docname="logo-no-background-no-text.svg"
   inkscape:version="1.3.2 (091e20e, 2023-11-25, custom)"
   xmlns:inkscape="http://www.inkscape.org/namespaces/inkscape"
   xmlns:sodipodi="http://sodipodi.sourceforge.net/DTD/sodipodi-0.dtd"
   xmlns="http://www.w3.org/2000/svg"
   xmlns:svg="http://www.w3.org/2000/svg">
  <defs
     id="defs11" />
  <sodipodi:namedview
     id="namedview11"
     pagecolor="#ffffff"
     bordercolor="#000000"
     borderopacity="0.25"
     inkscape:showpageshadow="2"
     inkscape:pageopacity="0.0"
     inkscape:pagecheckerboard="0"
     inkscape:deskcolor="#d1d1d1"
     inkscape:zoom="0.29579135"
     inkscape:cx="748.83868"
     inkscape:cy="762.36172"
     inkscape:window-width="1588"
     inkscape:window-height="695"
     inkscape:window-x="-8"
     inkscape:window-y="-8"
     inkscape:window-maximized="1"
     inkscape:current-layer="svg9" />
  <g
     id="g10"
     inkscape:transform-center-x="-388.78758"
     inkscape:transform-center-y="-165.65731"
     transform="translate(-0.22222222,-82.252019)">
    <svg
       viewBox="0 0 320 360"
       data-background-color="#0a0a0a"
       preserveAspectRatio="xMidYMid"
       height="1687"
       width="1500"
       version="1.1"
       id="svg10">
      <g
         id="tight-bounds">
        <svg
           viewBox="0 0 320 360"
           height="360"
           width="320"
           version="1.1"
           id="svg9">
          <g
             id="g1">
            <svg
               version="1.1"
               id="svg1"
               width="100%"
               height="100%" />
          </g>
          <g
             id="g9">
            <svg
               viewBox="0 0 320 360"
               height="360"
               width="320"
               version="1.1"
               id="svg8">
              <g
                 id="g2">
                <path
                   d="m 219.58,41.008 c 0.707,0 6.365,2.829 9.547,3.89 -1.061,0.354 -3.536,-0.707 -6.365,-1.768 0.707,0 2.122,0.354 3.536,1.06 -0.707,-0.707 -6.011,-2.475 -6.718,-3.182 M 166.895,30.047 c 1.061,-0.354 13.436,1.414 19.094,1.768 0.354,-0.354 -0.707,-0.354 -2.122,-0.707 1.768,-0.354 5.304,0.707 7.779,1.06 -7.425,0.354 -15.558,-1.768 -22.629,-1.06 -2.475,0 -0.707,-0.707 -2.122,-1.061 m -10.254,0 c 6.365,0 11.315,0 2.121,0.707 -1.061,-0.354 -2.475,-0.354 -2.121,-0.707 m 100.066,29.348 c 0.707,0 3.536,3.182 4.95,4.243 -0.354,0.354 -3.182,-2.475 -4.596,-3.536 0.354,0.354 0,0 -0.354,-0.707 m -7.072,-4.597 c -2.829,-2.475 -3.889,-2.475 -4.243,-3.889 2.475,1.414 4.243,2.829 4.243,3.889 M 204.022,32.522 c 0.354,-0.354 1.061,0.354 2.829,0.707 -2.122,-0.354 -1.768,0 -1.061,0.707 -2.475,-0.354 -3.182,-0.707 -2.475,-1.414 1.414,0.707 1.768,0.354 0.707,0 m -100.42,4.243 c 0,-0.354 1.414,-1.061 2.475,-1.414 -1.061,0.707 -0.707,1.061 1.061,0.353 0,0.354 -2.122,1.061 -3.536,1.768 0.707,-0.354 1.414,-1.414 0,-0.707 m 107.492,-7.779 c -1.061,0.354 -4.95,-1.768 -8.84,-2.475 -2.122,-0.707 8.486,1.768 8.84,2.475 M 2.475,203.66 c 2.122,8.84 0.707,8.486 0,0 m 0.354,-53.039 c 0.354,-1.414 0.707,-5.304 1.06,-4.95 -1.061,8.486 -2.829,12.376 -3.182,18.74 1.061,-5.657 -0.354,3.182 -0.707,5.304 0.354,2.829 0.354,-1.768 1.061,-1.06 0.707,1.061 -1.414,15.912 -0.707,7.779 -0.707,7.425 0,15.558 1.414,17.679 -1.768,11.315 7.072,36.773 8.84,42.077 0.354,0.354 0,-1.768 0.707,-0.353 0.707,4.597 3.889,7.779 4.95,12.729 1.061,1.414 5.304,9.193 6.011,10.962 1.414,2.829 2.122,2.475 3.536,5.303 4.243,8.133 10.961,15.912 17.326,23.337 20.508,24.044 51.978,43.845 86.984,50.918 35.006,7.425 71.779,2.122 100.419,-11.669 1.768,-1.061 1.414,-1.414 3.536,-2.122 9.901,-3.182 21.923,-13.436 28.641,-17.326 3.182,-3.536 11.669,-9.547 12.73,-13.082 6.011,-4.95 12.022,-13.083 15.204,-18.387 1.768,-2.829 3.182,-2.829 3.889,-4.597 -0.354,0 5.657,-7.425 7.426,-11.668 -0.707,0 -1.768,2.122 -1.768,0 12.729,-24.398 19.801,-57.282 15.911,-79.912 0.707,27.934 -6.365,59.05 -19.801,78.851 -6.011,12.729 -18.387,26.519 -29.701,36.42 -1.768,1.768 -3.536,3.889 -5.658,5.304 -6.718,5.657 -14.144,10.254 -21.922,14.497 -18.387,10.254 -38.895,19.094 -62.94,19.447 41.37,-3.536 78.497,-24.398 99.006,-49.856 -15.558,15.204 -22.276,21.215 -39.602,30.055 -1.414,2.475 -13.083,7.425 -20.862,9.547 4.597,-2.122 14.144,-5.657 17.326,-8.486 -25.812,12.376 -54.453,19.448 -81.326,15.558 10.254,0 24.751,0.354 38.541,-2.121 2.122,-0.707 3.182,-1.414 5.658,-1.768 26.873,-6.011 52.685,-19.094 71.072,-37.481 -10.608,9.547 -26.519,20.862 -36.774,24.398 9.547,-5.304 26.873,-15.558 32.53,-23.337 -11.315,11.315 -32.53,22.63 -45.966,27.58 -2.122,0.354 1.414,-1.414 -2.122,0 -4.243,1.061 -2.475,1.061 -3.536,1.768 -16.265,4.597 -35.006,8.486 -50.563,7.072 -2.829,-0.354 -3.889,-1.061 -6.365,-1.061 -2.829,-0.354 -5.304,-0.354 -8.486,-0.354 -12.376,-1.414 -25.812,-6.365 -35.713,-10.607 -5.304,-2.475 -10.608,-4.243 -15.912,-7.426 -4.243,-2.475 -7.779,-5.304 -11.314,-8.132 C 68.244,290.29 56.929,280.39 46.32,266.246 27.226,239.727 17.326,206.489 18.74,173.605 c 1.414,-32.884 14.497,-65.061 35.359,-88.752 -1.061,1.061 1.414,-2.475 3.536,-4.596 0,0.707 -0.354,1.768 2.122,-0.707 2.122,-2.475 -0.707,-0.707 0.353,-2.122 21.923,-24.044 60.111,-43.492 99.36,-44.199 1.414,-1.061 3.889,-2.475 6.718,-1.768 0,0.354 -1.768,0.354 -1.768,0.354 3.889,-0.354 7.425,-0.354 9.193,0.353 0.354,-0.354 -1.414,-0.707 0,-0.707 2.475,0.707 3.182,0 4.597,0.707 -1.061,0 -2.122,0 -2.829,0.354 8.84,0 14.497,2.122 23.337,2.829 -4.597,-1.061 -5.657,-1.061 -9.193,-2.122 3.889,0.707 5.657,1.414 7.425,1.061 -0.707,0 -0.354,-1.061 0.354,-0.707 7.072,1.768 7.779,2.475 15.204,4.95 0.707,-0.707 -3.182,-1.061 -4.243,-2.122 7.072,2.475 13.436,4.243 17.68,7.072 -1.414,-1.061 -5.657,-2.475 -8.84,-3.889 -0.354,0.354 1.061,0.707 1.414,1.414 -3.536,-1.768 -8.486,-3.536 -13.436,-4.243 4.243,1.061 7.072,2.475 8.84,3.182 -3.889,-0.707 -8.84,-3.182 -14.498,-4.243 9.193,2.829 26.519,9.193 37.127,14.851 -3.889,-2.475 -8.486,-4.243 -10.961,-5.657 2.122,0.354 4.597,1.768 4.597,1.06 2.475,1.061 5.657,3.536 7.425,3.89 -3.182,-2.122 -9.547,-5.304 -11.668,-6.365 26.519,12.022 50.21,32.177 65.414,57.989 1.414,2.475 3.536,8.133 5.304,8.84 -0.354,-1.768 -1.768,-2.829 -3.182,-5.657 0.707,0 0.707,-1.061 0,-2.122 -1.414,-1.768 0,1.414 -1.415,-0.354 -6.365,-11.669 -14.144,-21.923 -26.165,-33.237 6.718,6.365 1.768,1.768 0.353,-0.354 9.193,8.133 19.801,21.923 24.398,28.995 -0.707,-1.061 -1.061,-1.768 -0.707,-1.768 8.486,14.497 13.79,27.58 19.094,46.32 0.354,0.354 0,-1.414 0.707,-0.353 3.536,14.851 4.597,27.227 4.243,38.541 2.829,-19.094 -3.536,-48.796 -14.851,-72.133 -1.414,-2.829 -1.414,-0.707 -2.829,-3.889 0,-1.061 -1.061,-3.182 -1.768,-4.597 -14.144,-23.337 -31.47,-39.956 -51.978,-53.038 1.414,0.707 4.243,2.829 4.244,2.475 C 208.619,24.036 164.42,20.5 128,28.279 c -2.475,1.061 -3.536,2.122 -6.365,3.536 5.304,-1.768 8.486,-2.122 13.437,-3.183 1.061,-1.061 -4.597,0.354 -2.122,-0.707 0.354,0.354 4.95,-0.707 6.011,-0.353 0,0.354 -1.414,0.707 -1.768,1.06 11.669,-2.475 23.691,-2.829 33.945,-2.121 -6.011,0.354 -16.972,-0.707 -20.508,1.061 3.536,-0.354 8.486,-0.707 11.668,-0.354 -4.243,0 -12.022,0.354 -15.558,0.707 -0.354,-0.354 5.657,-1.061 1.768,-1.06 -1.768,0.354 -4.597,0.354 -5.657,1.414 -30.409,2.829 -60.111,18.74 -80.973,37.481 -4.243,3.536 -9.193,7.425 -12.375,11.314 -7.779,8.84 -12.729,17.68 -18.387,25.459 3.536,-7.425 11.315,-18.74 20.508,-28.287 9.193,-9.547 19.094,-17.68 24.398,-21.923 0,1.414 8.486,-5.304 11.669,-7.425 -2.122,1.768 1.414,-0.707 2.121,-0.354 11.315,-6.718 20.508,-9.193 30.763,-13.083 -2.475,0.707 -4.597,1.414 -4.951,1.061 2.475,-0.707 3.889,-1.414 3.536,-1.768 -9.901,2.829 -25.459,9.547 -37.834,16.972 22.276,-15.204 50.564,-24.398 78.497,-24.751 27.934,-0.707 55.16,6.365 76.729,17.68 14.497,6.365 28.287,18.033 39.249,29.348 3.182,2.829 0.707,-0.707 5.304,4.243 -1.414,-0.707 -2.475,-1.414 -0.707,0.707 2.829,3.182 -0.707,-2.475 3.889,3.182 -0.354,0 -1.768,-1.768 -1.768,-1.061 12.376,10.961 21.923,30.762 27.58,43.846 -1.414,-5.304 -4.95,-12.729 -7.779,-18.033 8.486,15.558 11.315,24.751 14.851,38.541 1.414,1.061 -0.707,-4.95 0.707,-2.121 0.354,2.122 0.707,8.84 2.122,9.9 -1.061,-6.718 -2.829,-14.851 -4.243,-16.265 1.061,0.707 -1.768,-8.133 -3.536,-10.254 -0.707,-5.657 -5.657,-15.558 -9.901,-22.984 -15.204,-29.702 -42.431,-54.099 -72.839,-67.536 0,-0.707 -1.768,-1.414 -2.476,-2.121 C 196.95,17.318 160.883,13.782 126.232,21.914 91.226,30.4 58.343,50.555 35.005,79.55 36.066,76.014 44.906,69.296 45.26,66.467 35.006,77.428 24.045,91.926 16.619,107.483 8.84,123.041 4.597,138.953 2.829,150.621"
                   fill="#3fb5a0"
                   fill-rule="nonzero"
                   stroke="none"
                   stroke-width="1"
                   stroke-linecap="butt"
                   stroke-linejoin="miter"
                   stroke-miterlimit="10"
                   stroke-dasharray="none"
                   stroke-dashoffset="0"
                   font-family="none"
                   font-weight="none"
                   font-size="none"
                   text-anchor="none"
                   style="mix-blend-mode:normal"
                   data-fill-palette-color="tertiary"
                   id="path1" />
              </g>
            </svg>
          </g>
          <defs
             id="defs9" />
        </svg>
        <path
           id="rect9"
           style="visibility:hidden;fill:none"
           d="M 0,0 H 320 V 360 H 0 Z" />
      </g>
    </svg>
  </g>
</svg>
